<svg width="63" height="63" viewBox="0 0 63 63" fill="none" xmlns="http://www.w3.org/2000/svg">
<g filter="url(#filter0_d_110_90)">
<g clip-path="url(#clip0_110_90)">
<path d="M4 0H59V55H4V0Z" fill="url(#paint0_linear_110_90)"/>
<path d="M43.7218 32.3797C43.2337 33.7876 42.5352 35.1134 41.6501 36.3122C40.8282 37.4213 40.156 38.1883 39.6396 38.613C38.839 39.3158 37.9773 39.6733 37.0576 39.6916C36.3946 39.6916 35.5971 39.5113 34.6682 39.1508C33.8531 38.8148 32.9829 38.6325 32.1015 38.613C31.2826 38.613 30.4026 38.7902 29.4615 39.1508C28.5173 39.5113 27.7565 39.7008 27.176 39.7191C26.296 39.7558 25.4129 39.3891 24.536 38.613C23.9737 38.1516 23.274 37.3541 22.4337 36.2297C21.4905 34.9512 20.741 33.5407 20.2093 32.0436C19.6107 30.4504 19.2953 28.7648 19.2773 27.063C19.2773 25.2205 19.699 23.6286 20.5393 22.2963C21.1981 21.2389 22.1131 20.3648 23.1995 19.7549C24.2858 19.1449 25.5085 18.8189 26.7543 18.8069C27.4571 18.8069 28.3768 19.0147 29.5196 19.418C30.6593 19.8244 31.3896 20.0291 31.7104 20.0291C31.9518 20.0291 32.7646 19.7877 34.1426 19.308C35.4443 18.8649 36.5473 18.6816 37.4487 18.7519C39.8901 18.9413 41.7235 19.8519 42.9426 21.4958C40.761 22.7486 39.6793 24.5055 39.7007 26.7574C39.7221 28.5113 40.3912 29.9749 41.7112 31.133C42.3101 31.6708 42.9793 32.0833 43.7218 32.3797ZM37.5801 12.2222C37.5985 12.4055 37.6107 12.5888 37.6107 12.7722C37.6107 14.1472 37.079 15.4305 36.0218 16.6222C34.7476 18.0338 33.2046 18.8527 31.5301 18.7213C31.5088 18.549 31.4986 18.3755 31.4996 18.2019C31.4996 16.8788 32.1046 15.4672 33.1801 14.3122C33.7179 13.7255 34.4023 13.2427 35.2304 12.8516C35.9661 12.4932 36.7638 12.2795 37.5801 12.2222Z" fill="white"/>
</g>
</g>
<defs>
<filter id="filter0_d_110_90" x="0" y="0" width="63" height="63" filterUnits="userSpaceOnUse" color-interpolation-filters="sRGB">
<feFlood flood-opacity="0" result="BackgroundImageFix"/>
<feColorMatrix in="SourceAlpha" type="matrix" values="0 0 0 0 0 0 0 0 0 0 0 0 0 0 0 0 0 0 127 0" result="hardAlpha"/>
<feOffset dy="4"/>
<feGaussianBlur stdDeviation="2"/>
<feComposite in2="hardAlpha" operator="out"/>
<feColorMatrix type="matrix" values="0 0 0 0 0 0 0 0 0 0 0 0 0 0 0 0 0 0 0.25 0"/>
<feBlend mode="normal" in2="BackgroundImageFix" result="effect1_dropShadow_110_90"/>
<feBlend mode="normal" in="SourceGraphic" in2="effect1_dropShadow_110_90" result="shape"/>
</filter>
<linearGradient id="paint0_linear_110_90" x1="14.2331" y1="9.53945" x2="70.9289" y2="74.6594" gradientUnits="userSpaceOnUse">
<stop stop-color="#1A1E21"/>
<stop offset="1" stop-color="#06060A"/>
</linearGradient>
<clipPath id="clip0_110_90">
<rect x="4" width="55" height="55" rx="27.5" fill="white"/>
</clipPath>
</defs>
</svg>
