<svg width="63" height="63" viewBox="0 0 63 63" fill="none" xmlns="http://www.w3.org/2000/svg">
<g filter="url(#filter0_d_107_90)">
<g clip-path="url(#clip0_107_90)">
<path d="M4 0H59V55H4V0Z" fill="#F0F3FA"/>
<path d="M46.4788 25.3183H31.5004V30.7999H40.1354C38.8735 34.3566 35.491 36.6666 31.5004 36.6666C30.0146 36.6694 28.5504 36.3109 27.2338 35.6221C25.9173 34.9333 24.7879 33.9348 23.943 32.7125C23.0981 31.4903 22.5629 30.081 22.3837 28.606C22.2044 27.131 22.3863 25.6346 22.9139 24.2455C23.4414 22.8565 24.2987 21.6165 25.4118 20.6323C26.525 19.6482 27.8608 18.9494 29.304 18.5961C30.7473 18.2429 32.2547 18.2457 33.6966 18.6045C35.1385 18.9632 36.4716 19.6671 37.581 20.6555L41.9016 16.3349C39.083 13.6923 35.3641 12.2218 31.5004 12.2222C28.4788 12.2222 25.525 13.1182 23.0126 14.7969C20.5001 16.4757 18.542 18.8617 17.3856 21.6534C16.2293 24.445 15.9267 27.5169 16.5162 30.4805C17.1057 33.4441 18.5608 36.1663 20.6974 38.303C22.8341 40.4396 25.5563 41.8947 28.5199 42.4842C31.4835 43.0737 34.5553 42.7711 37.347 41.6148C40.1386 40.4584 42.5247 38.5002 44.2034 35.9878C45.8822 33.4754 46.7782 30.5216 46.7782 27.4999C46.7782 26.6749 46.6743 26.2869 46.4788 25.3183Z" fill="#FFC107"/>
<path d="M17.9824 20.3897L23.0058 24.0716C23.6882 22.3772 24.8615 20.9255 26.3752 19.903C27.8888 18.8805 29.6736 18.3338 31.5002 18.3333C33.8377 18.3333 35.9613 19.2133 37.5808 20.6555L41.9013 16.3349C39.0828 13.6923 35.3639 12.2218 31.5002 12.2222C28.7165 12.222 25.9858 12.9828 23.6033 14.4224C21.2207 15.8619 19.277 17.9254 17.9824 20.3897Z" fill="#FF3D00"/>
<path d="M31.5007 42.7778C35.2895 42.7773 38.9418 41.363 41.7429 38.8117L37.0159 34.8089C35.4302 36.0149 33.4928 36.6675 31.5007 36.6667C27.5284 36.6667 24.1551 34.1306 22.884 30.5984L17.9004 34.4362C19.1775 36.9456 21.1238 39.053 23.524 40.5251C25.9243 41.9973 28.6849 42.777 31.5007 42.7778Z" fill="#4CAF50"/>
<path d="M46.4783 25.3184H31.5V30.8H40.135C39.53 32.5111 38.43 33.7364 37.0122 34.812L41.7422 38.8147C41.4092 39.1111 46.7778 35.1389 46.7778 27.5C46.7778 26.4764 46.6739 26.287 46.4783 25.3184Z" fill="#1976D2"/>
</g>
</g>
<defs>
<filter id="filter0_d_107_90" x="0" y="0" width="63" height="63" filterUnits="userSpaceOnUse" color-interpolation-filters="sRGB">
<feFlood flood-opacity="0" result="BackgroundImageFix"/>
<feColorMatrix in="SourceAlpha" type="matrix" values="0 0 0 0 0 0 0 0 0 0 0 0 0 0 0 0 0 0 127 0" result="hardAlpha"/>
<feOffset dy="4"/>
<feGaussianBlur stdDeviation="2"/>
<feComposite in2="hardAlpha" operator="out"/>
<feColorMatrix type="matrix" values="0 0 0 0 0 0 0 0 0 0 0 0 0 0 0 0 0 0 0.25 0"/>
<feBlend mode="normal" in2="BackgroundImageFix" result="effect1_dropShadow_107_90"/>
<feBlend mode="normal" in="SourceGraphic" in2="effect1_dropShadow_107_90" result="shape"/>
</filter>
<clipPath id="clip0_107_90">
<rect x="4" width="55" height="55" rx="27.5" fill="white"/>
</clipPath>
</defs>
</svg>
